<svg width="120" height="120" viewBox="0 0 120 120" fill="none" xmlns="http://www.w3.org/2000/svg">
  <path d="M60 0L120 60V120H0V60L60 0Z" fill="#2563EB"/>
  <path d="M60 20L100 60V100H20V60L60 20Z" fill="#059669"/>
  <path d="M60 40L80 60V80H40V60L60 40Z" fill="#F59E0B"/>
  <circle cx="60" cy="60" r="20" fill="#F3F4F6"/>
  <path d="M60 50C65.5228 50 70 54.4772 70 60C70 65.5228 65.5228 70 60 70C54.4772 70 50 65.5228 50 60C50 54.4772 54.4772 50 60 50ZM60 55C57.2386 55 55 57.2386 55 60C55 62.7614 57.2386 65 60 65C62.7614 65 65 62.7614 65 60C65 57.2386 62.7614 55 60 55Z" fill="#2563EB"/>
</svg>
